<?xml version="1.0" encoding="UTF-8" standalone="no"?>
<!-- Generator: Adobe Illustrator 24.0.2, SVG Export Plug-In . SVG Version: 6.00 Build 0)  -->

<svg
   version="1.1"
   id="Layer_1"
   x="0px"
   y="0px"
   viewBox="0 0 166.75322 48.800781"
   xml:space="preserve"
   width="166.75322"
   height="48.800781"
   sodipodi:docname="ixtlan-proto-logo.svg"
   xmlns:inkscape="http://www.inkscape.org/namespaces/inkscape"
   xmlns:sodipodi="http://sodipodi.sourceforge.net/DTD/sodipodi-0.dtd"
   xmlns="http://www.w3.org/2000/svg"
   xmlns:svg="http://www.w3.org/2000/svg"><sodipodi:namedview
   id="namedview26"
   pagecolor="#000000"
   bordercolor="#000000"
   borderopacity="0.25"
   inkscape:showpageshadow="2"
   inkscape:pageopacity="0"
   inkscape:pagecheckerboard="0"
   inkscape:deskcolor="#d1d1d1"
   showgrid="false" /><defs
   id="defs12" />
<style
   type="text/css"
   id="style1">
	.st0{fill:#00ADEE;}
	.st1{fill:#FFFFFF;}
</style>
<path
   d="M 8.099609,0 0,8.09961 8.199218,16.40039 16.398437,8.20117 Z"
   style="fill:#ffffff"
   id="path14" /><path
   d="M 40.798827,0 0,40.70117 l 8.099609,8.09961 16.355468,-16.27735 16.34375,16.27735 8.201172,-8.09961 -16.375,-16.30664 16.375,-16.29492 z"
   style="fill:#ffffff"
   id="path15" />
<path
   class="st1"
   d="M 66.253032,23.30194 H 63.653027 V 9.5019399 h 2.600005 z"
   id="path3"
   style="fill:#ffffff;fill-opacity:1" /><path
   class="st1"
   d="m 73.653046,18.50194 -2.900005,4.8 h -3.100006 l 4.500008,-7.1 -4.300008,-6.7000001 h 3.100006 l 2.700005,4.5000001 2.700005,-4.5000001 h 3.100005 l -4.300007,6.7000001 4.400008,7.1 h -3.000006 z"
   id="path4"
   style="fill:#ffffff;fill-opacity:1" /><path
   class="st1"
   d="m 84.153065,11.90194 v 11.4 H 81.55306 v -11.4 H 77.853053 V 9.5019399 H 87.853072 V 11.90194 Z"
   id="path5"
   style="fill:#ffffff;fill-opacity:1" /><path
   class="st1"
   d="m 90.253077,20.80194 h 6.900012 v 2.4 H 87.653072 V 9.5019399 h 2.600005 z"
   id="path6"
   style="fill:#ffffff;fill-opacity:1" /><path
   class="st1"
   d="m 100.0531,20.40067 -0.900007,2.8 H 96.353088 L 101.1531,9.4006699 h 3.3 l 4.80001,13.8000001 h -2.7 l -0.9,-2.8 z m 2.8,-8.1 -1.9,5.7 h 3.9 z"
   id="path7"
   style="fill:#ffffff;fill-opacity:1" /><path
   class="st1"
   d="m 120.45314,23.20039 h -3.20001 l -5.60002,-9.8 v 9.8 h -2.59999 V 9.4003899 h 3.2 l 5.60001,9.8000001 V 9.4003899 h 2.60001 z"
   id="path8"
   style="fill:#ffffff;fill-opacity:1" /><path
   class="st1"
   d="m 128.05315,11.00039 v 12.2 h -1.7 v -12.2 h -4.30001 V 9.4003899 h 10.40001 V 11.00039 Z"
   id="path9"
   style="fill:#ffffff;fill-opacity:1" /><path
   class="st1"
   d="M 142.15318,9.4003899 V 11.00039 h -8.20002 v 4.2 h 7.40001 v 1.6 h -7.40001 v 4.8 h 8.20002 v 1.6 h -9.90002 V 9.4003899 Z"
   id="path10"
   style="fill:#ffffff;fill-opacity:1" /><path
   class="st1"
   d="m 144.65318,19.20039 -1.50001,4 h -1.8 l 5.20001,-13.8000001 h 1.90001 L 153.5532,23.20039 h -1.90001 l -1.5,-4 z m 2.8,-7.8 -2.2,6.2 h 4.50001 z"
   id="path11"
   style="fill:#ffffff;fill-opacity:1" /><path
   class="st1"
   d="m 166.55322,23.20039 h -1.7 v -11.6 l -4.00001,11.6 h -1.8 l -4.00001,-11.6 v 11.6 h -1.7 V 9.4003899 h 2.6 l 4.10001,11.6000001 4.1,-11.6000001 h 2.60001 V 23.20039 Z"
   id="path12"
   style="fill:#ffffff;fill-opacity:1" /><path
   style="-inkscape-font-specification:Monaco;fill-opacity:0;stroke-miterlimit:3.5;paint-order:stroke markers fill"
   d="m 90.502354,23.23402 v 3.02002 h -1.943688 v 0.15531 c -0.904176,-0.57791 -1.923872,-0.98749 -3.017986,-0.98749 -1.227832,0 -2.377626,0.48943 -3.338289,1.208 v -0.5158 l -1.36078,-0.40075 c -0.640906,-0.18959 -1.305756,-0.29145 -1.971539,-0.29145 -0.422051,0 -0.796031,0.22882 -1.207593,0.32405 v -0.11505 h -5.146693 v 1.18116 c -0.79116,-0.81318 -1.949016,-1.39016 -3.143322,-1.39016 -0.376104,0 -0.678339,0.21319 -1.026554,0.30296 v -0.094 h -5.146693 v 14.12026 h 5.146693 v -2.86854 c 0.991485,-0.0708 1.966672,-0.31745 2.775276,-0.87053 l 0.004,-0.002 0.004,-0.004 c 0.593507,-0.41058 0.976612,-1.02726 1.386642,-1.61451 v 2.44669 h 5.146694 v -4.79173 h 2.413196 c 0.148299,1.18945 0.531902,2.3347 1.328949,3.23095 l 0.002,0.002 0.002,0.002 c 1.013827,1.13322 2.571516,1.76407 4.132077,1.76407 1.557786,0 3.11173,-0.63246 4.124119,-1.76407 l 0.002,-0.002 0.002,-0.002 c 0.489248,-0.55014 0.854353,-1.18857 1.098173,-1.87338 0.07812,0.49539 0.04373,1.01498 0.320301,1.49372 l 0.004,0.008 0.004,0.006 c 0.426606,0.72366 1.115725,1.31611 1.885993,1.66053 0.718294,0.32117 1.511886,0.47361 2.301787,0.47361 0.376985,0 0.75268,-0.0375 1.126026,-0.10354 0.609484,-0.10105 1.074527,-0.28313 1.734796,-0.55032 l 1.179739,-0.47745 v -0.0709 c 0.959812,0.71586 2.106912,1.20226 3.332312,1.20226 1.55779,0 3.11173,-0.63247 4.12412,-1.76408 l 0.002,-0.002 0.002,-0.002 c 0.48924,-0.55014 0.85434,-1.18856 1.09817,-1.87337 0.0781,0.49538 0.0437,1.01498 0.3203,1.49371 l 0.004,0.008 0.004,0.006 c 0.4266,0.72368 1.11572,1.31612 1.88599,1.66053 0.7183,0.32118 1.51189,0.47362 2.30179,0.47362 0.37699,0 0.75268,-0.0375 1.12603,-0.10354 0.0922,-0.0153 0.1759,-0.0633 0.26261,-0.0824 v 2.6346 l 1.50401,0.32597 c 0.48037,0.10366 0.97234,0.14573 1.48015,0.14573 1.26339,0 2.53759,-0.38134 3.48949,-1.18691 1.03714,-0.87289 1.64071,-2.02735 2.32566,-3.61252 v -0.002 l 0.51725,-1.19267 v 5.77926 h 5.1447 v -2.86854 c 0.99219,-0.0706 1.96614,-0.31707 2.77528,-0.87053 l 0.004,-0.002 0.004,-0.004 c 0.62176,-0.43012 1.03445,-1.06906 1.45429,-1.69121 0.46104,0.76886 1.04548,1.47626 1.82232,1.94815 0.8631,0.52429 1.88694,0.79 2.90659,0.79 1.26553,0 2.52834,-0.32551 3.76402,-0.89163 l 1.09817,-0.50429 v -2.36233 h 0.11142 v -2.12456 c 0,-0.3134 -0.0838,-0.59011 -0.11142,-0.89162 v -0.0727 l -0.008,0.004 c -0.11817,-1.18741 -0.40496,-2.30146 -1.18172,-3.18109 -0.89582,-1.01895 -2.30669,-1.60684 -3.68644,-1.60684 -1.03276,0 -2.06874,0.28593 -2.93643,0.82643 -0.56747,0.35054 -0.91424,0.92547 -1.31303,1.44961 -0.16713,-0.29107 -0.26461,-0.6159 -0.50731,-0.86861 -0.7915,-0.82417 -1.96275,-1.40743 -3.16719,-1.40743 -0.3765,0 -0.67999,0.21302 -1.02855,0.30296 v -0.0939 h -1.53585 -3.60885 -1.87207 l -1.2613,2.95866 -1.50602,-2.95866 h -5.6898 l 0.31034,0.62318 h -0.32228 V 23.2349 h -5.1447 v 3.02002 h -1.9437 v 0.15532 c -0.90417,-0.57792 -1.92387,-0.9875 -3.01798,-0.9875 -1.31555,0 -2.5599,0.53589 -3.547176,1.35565 V 26.25492 H 95.647241 V 23.2349 Z m -4.961674,6.93933 c 0.192134,0 0.02504,-0.0732 0.117376,0.0441 0.08334,0.10588 0.220829,0.37999 0.220829,1.01434 0,0.64016 -0.139103,0.91435 -0.220829,1.01818 -0.09234,0.11732 0.07475,0.0441 -0.117376,0.0441 -0.200109,0 -0.03314,0.0705 -0.123346,-0.0441 -0.08172,-0.10383 -0.220829,-0.37802 -0.220829,-1.01818 0,-0.63435 0.137492,-0.90846 0.220829,-1.01434 0.09022,-0.11461 -0.07676,-0.0441 0.123346,-0.0441 z m 17.11519,0 c 0.19215,0 0.0251,-0.0732 0.11738,0.0441 0.0833,0.10588 0.22082,0.37999 0.22082,1.01434 0,0.64016 -0.1391,0.91435 -0.22082,1.01818 -0.0923,0.11731 0.0748,0.0441 -0.11738,0.0441 -0.2001,0 -0.0331,0.0705 -0.12334,-0.0441 -0.0817,-0.10383 -0.22083,-0.37802 -0.22083,-1.01818 0,-0.63435 0.13749,-0.90846 0.22083,-1.01434 0.0902,-0.11461 -0.0768,-0.0441 0.12334,-0.0441 z m -7.008812,0.83218 h 1.444336 c -0.0026,0.0775 -0.0378,0.14855 -0.0378,0.22627 0,0.12656 0.05468,0.24232 0.06168,0.36815 l -0.670443,0.36816 c -0.372923,0.20504 -0.592129,0.23016 -0.803736,0.25694 -0.0087,-0.0712 0.006,0.0201 0.006,-0.0748 z m 17.115192,0 h 2.54848 l -1.75071,0.96258 c -0.37293,0.20504 -0.59213,0.23016 -0.80374,0.25694 -0.009,-0.0712 0.006,0.0201 0.006,-0.0748 z m 15.61316,0.0959 c -0.032,0.18513 -0.07,0.34971 -0.12733,0.4602 v -0.30296 c 0.0436,-0.0616 0.0842,-0.10212 0.12733,-0.15724 z m -59.904165,0.002 c -0.03182,0.18319 -0.06858,0.34657 -0.125335,0.45636 v -0.30296 c 0.04268,-0.0603 0.08312,-0.0993 0.125335,-0.1534 z m 47.967495,1.86379 0.85944,1.72189 c -0.0607,0.10793 -0.072,0.15448 -0.17109,0.30104 -0.13885,0.20536 -0.20785,0.21905 -0.13925,0.186 -0.0298,0.0144 -0.0844,0.0384 -0.25267,0.0384 -0.0688,0 -0.18859,-0.0279 -0.29643,-0.0498 z"
   id="path2" />
<g
   aria-label="MOVIE CLUB"
   transform="scale(0.97712531,1.0234102)"
   id="text192"
   style="font-size:17.7696px;fill:#ff00ff;stroke-width:1.1106"><path
     d="m 65.411561,38.564419 q 0.07108,-1.510416 0.159926,-3.145219 0.106618,-1.634804 0.213236,-3.269607 0.124387,-1.634803 0.266544,-3.145219 0.142156,-1.510416 0.319852,-2.754288 h 2.292279 q 0.373161,0.657475 0.817401,1.581494 0.44424,0.92402 0.924019,1.990196 0.497549,1.066176 0.977328,2.150121 0.47978,1.083946 0.870711,2.007965 0.408701,-0.924019 0.87071,-2.007965 0.479779,-1.083945 0.959559,-2.150121 0.497548,-1.066176 0.941788,-1.990196 0.46201,-0.924019 0.817402,-1.581494 h 2.185661 q 0.177696,1.243872 0.319853,2.754288 0.142156,1.510416 0.248774,3.145219 0.124387,1.634803 0.213235,3.269607 0.106618,1.634803 0.177696,3.145219 h -2.363357 q -0.05331,-1.368259 -0.124387,-2.807597 -0.05331,-1.439338 -0.142157,-2.914214 -0.07108,-1.492647 -0.195465,-2.914215 -0.231005,0.533088 -0.550858,1.243872 -0.319853,0.710784 -0.693014,1.528186 -0.355392,0.799632 -0.710784,1.599264 -0.337623,0.781862 -0.639706,1.474877 -0.302083,0.693014 -0.497549,1.172793 h -1.74142 q -0.213236,-0.479779 -0.515319,-1.172793 -0.284313,-0.693015 -0.639705,-1.474877 -0.355392,-0.799632 -0.710784,-1.599264 -0.355392,-0.817402 -0.675245,-1.528186 -0.319853,-0.710784 -0.550858,-1.243872 -0.124387,1.421568 -0.213235,2.914215 -0.08885,1.474876 -0.142157,2.914214 -0.05331,1.439338 -0.106617,2.807597 z"
     style="font-weight:bold;font-family:'Ubuntu Sans';-inkscape-font-specification:'Ubuntu Sans Bold'"
     id="path595" /><path
     d="m 87.090462,38.813193 q -1.652573,0 -3.038602,-0.728553 -1.368259,-0.728554 -2.185661,-2.150122 -0.817401,-1.439338 -0.817401,-3.53615 0,-1.581495 0.479779,-2.772058 0.479779,-1.208333 1.33272,-2.025734 0.852941,-0.817402 1.936886,-1.226103 1.083946,-0.408701 2.292279,-0.408701 1.670342,0 3.038601,0.728554 1.386029,0.728554 2.203431,2.167891 0.817401,1.421568 0.817401,3.536151 0,2.096812 -0.817401,3.53615 -0.799632,1.421568 -2.167892,2.150122 -1.368259,0.728553 -3.07414,0.728553 z m 0,-2.132352 q 1.119484,0 1.901347,-0.533088 0.799632,-0.533088 1.226102,-1.492646 0.426471,-0.959559 0.426471,-2.256739 0,-1.314951 -0.426471,-2.274509 -0.42647,-0.959559 -1.226102,-1.492647 -0.781863,-0.533088 -1.901347,-0.533088 -1.101715,0 -1.901347,0.550858 -0.781863,0.533088 -1.208333,1.492646 -0.426471,0.959559 -0.426471,2.25674 0,1.29718 0.426471,2.256739 0.42647,0.959558 1.208333,1.492646 0.799632,0.533088 1.901347,0.533088 z"
     style="font-weight:bold;font-family:'Ubuntu Sans';-inkscape-font-specification:'Ubuntu Sans Bold'"
     id="path597" /><path
     d="m 98.773992,38.564419 q -0.693015,-1.474877 -1.35049,-3.038602 -0.657475,-1.563725 -1.297181,-3.162989 -0.621936,-1.599264 -1.190563,-3.145219 -0.550857,-1.545955 -1.048406,-2.967523 h 2.683209 q 0.390932,1.172794 0.817402,2.452205 0.44424,1.261641 0.87071,2.523283 0.44424,1.261642 0.88848,2.416666 0.44424,1.137254 0.835172,2.061273 0.390935,-0.924019 0.817405,-2.061273 0.44424,-1.155024 0.88848,-2.416666 0.44424,-1.261642 0.87071,-2.523283 0.44424,-1.279411 0.83517,-2.452205 h 2.57659 q -0.49755,1.421568 -1.06618,2.967523 -0.55085,1.545955 -1.17279,3.145219 -0.62194,1.581495 -1.29718,3.162989 -0.65748,1.563725 -1.33272,3.038602 z"
     style="font-weight:bold;font-family:'Ubuntu Sans';-inkscape-font-specification:'Ubuntu Sans Bold'"
     id="path599" /><path
     d="M 107.6055,38.564419 V 26.250086 h 2.43443 v 12.314333 z"
     style="font-weight:bold;font-family:'Ubuntu Sans';-inkscape-font-specification:'Ubuntu Sans Bold'"
     id="path601" /><path
     d="M 112.95415,38.564419 V 26.250086 h 8.04963 v 2.043504 h -5.61519 v 2.825366 h 4.99326 v 2.007965 h -4.99326 v 3.393994 h 6.04166 v 2.043504 z"
     style="font-weight:bold;font-family:'Ubuntu Sans';-inkscape-font-specification:'Ubuntu Sans Bold'"
     id="path603" /><path
     d="m 133.24702,38.813193 q -1.90135,0 -3.25184,-0.746323 -1.35049,-0.746323 -2.06127,-2.185661 -0.71079,-1.439337 -0.71079,-3.482841 0,-1.528186 0.46201,-2.718749 0.47978,-1.208333 1.31495,-2.025735 0.83517,-0.835171 1.95466,-1.261641 1.11948,-0.426471 2.41666,-0.426471 1.03064,0 1.79473,0.177696 0.7641,0.177696 1.24388,0.390932 0.49754,0.213235 0.69301,0.355392 l -0.71078,1.972425 q -0.53309,-0.302083 -1.27941,-0.515318 -0.74633,-0.231005 -1.70589,-0.231005 -1.01286,0 -1.84803,0.46201 -0.81741,0.44424 -1.31496,1.386028 -0.49754,0.941789 -0.49754,2.398896 0,1.243872 0.37316,2.2212 0.39093,0.959559 1.20833,1.528186 0.83517,0.550858 2.13235,0.550858 1.2261,0 1.95466,-0.231005 0.72855,-0.231005 1.17279,-0.46201 l 0.67525,1.972426 q -0.51532,0.302083 -1.56373,0.586397 -1.03063,0.284313 -2.4522,0.284313 z"
     style="font-weight:bold;font-family:'Ubuntu Sans';-inkscape-font-specification:'Ubuntu Sans Bold'"
     id="path605" /><path
     d="M 139.09322,38.564419 V 26.250086 h 2.43443 v 10.21752 h 5.52635 v 2.096813 z"
     style="font-weight:bold;font-family:'Ubuntu Sans';-inkscape-font-specification:'Ubuntu Sans Bold'"
     id="path607" /><path
     d="m 153.44659,38.813193 q -1.70589,0 -2.78983,-0.621936 -1.08395,-0.639705 -1.59927,-1.741421 -0.49754,-1.101715 -0.49754,-2.523283 v -7.676467 h 2.41666 v 7.463232 q 0,1.617034 0.69302,2.310048 0.69301,0.675245 1.79473,0.675245 1.11948,0 1.81249,-0.693015 0.69302,-0.693014 0.69302,-2.292278 v -7.463232 h 2.41666 v 7.676467 q 0,1.439338 -0.51531,2.541053 -0.51532,1.101715 -1.61704,1.723651 -1.08394,0.621936 -2.80759,0.621936 z"
     style="font-weight:bold;font-family:'Ubuntu Sans';-inkscape-font-specification:'Ubuntu Sans Bold'"
     id="path609" /><path
     d="m 165.0146,38.706576 q -0.62194,0 -1.26165,-0.03554 -0.6397,-0.01777 -1.29718,-0.106617 -0.6397,-0.07108 -1.29718,-0.213235 V 26.445552 q 0.55086,-0.124388 1.1728,-0.195466 0.62193,-0.07108 1.24387,-0.106618 0.6397,-0.03554 1.19056,-0.03554 1.51042,0 2.70098,0.319853 1.19056,0.319853 1.88358,1.066176 0.69301,0.728554 0.69301,2.025734 0,0.781863 -0.39093,1.403799 -0.39093,0.604166 -1.13725,0.995097 1.15502,0.408701 1.6348,1.155024 0.49755,0.746324 0.49755,1.8125 0,1.901347 -1.42157,2.860905 -1.4038,0.959559 -4.21139,0.959559 z m 0.0533,-1.990196 q 0.90625,0 1.59927,-0.159926 0.69301,-0.177696 1.10171,-0.568627 0.4087,-0.408701 0.4087,-1.137255 0,-0.995097 -0.71078,-1.386028 -0.71078,-0.390932 -2.00796,-0.390932 h -1.91912 v 3.55392 q 0.28431,0.03554 0.67524,0.07108 0.4087,0.01777 0.85294,0.01777 z m -1.52818,-5.508576 h 1.56372 q 0.87071,0 1.43934,-0.142156 0.56863,-0.159927 0.83517,-0.515319 0.28432,-0.355392 0.28432,-0.924019 0,-0.852941 -0.67525,-1.190563 -0.65747,-0.355392 -1.88358,-0.355392 -0.4087,0 -0.83517,0.01777 -0.42647,0.01777 -0.72855,0.05331 z"
     style="font-weight:bold;font-family:'Ubuntu Sans';-inkscape-font-specification:'Ubuntu Sans Bold'"
     id="path611" /></g></svg>
